# xmcd
#
# Track frame offsets:
#	150
#	487
#	937
#	23929
#	46829
#	69452
#	92640
#	115264
#	138523
#	162003
#	184362
#	207124
#	230152
#	252435
#	275850
#	298170
#
# Disc length: 4276 seconds
#
# Revision: 0
# Processed by: cddbd v1.5.1PL2 Copyright (c) Steve Scherf et al.
# Submitted via: dBpowerAMP V4.0
#
DISCID=e010b210
DTITLE=Virginia Woolf - Mot fyren - CD-BOK 03/08
DYEAR=1927
DGENRE=CD-BOK
TTITLE0=03.01
TTITLE1=03.02
TTITLE2=03.03
TTITLE3=03.04
TTITLE4=03.05
TTITLE5=03.06
TTITLE6=03.07
TTITLE7=03.08
TTITLE8=03.09
TTITLE9=03.10
TTITLE10=03.11
TTITLE11=03.12
TTITLE12=03.13
TTITLE13=03.14
TTITLE14=03.15
TTITLE15=03.16
EXTD=
EXTT0=
EXTT1=
EXTT2=
EXTT3=
EXTT4=
EXTT5=
EXTT6=
EXTT7=
EXTT8=
EXTT9=
EXTT10=
EXTT11=
EXTT12=
EXTT13=
EXTT14=
EXTT15=
PLAYORDER=
